<svg enable-background="new 0 0 492.308 492.308" version="1.1" viewBox="0 0 492.31 492.31" xml:space="preserve" xmlns="http://www.w3.org/2000/svg"><path d="m246.15 0c-135.73 0-246.15 110.42-246.15 246.15s110.42 246.15 246.15 246.15 246.15-110.42 246.15-246.15-110.42-246.15-246.15-246.15zm-65.542 29.399c-19.313 18.77-35.683 45.715-47.788 78.445-13.961-8.108-27.079-17.777-39.23-28.898 24.649-22.509 54.282-39.629 87.018-49.547zm-101.14 63.644c14.422 13.299 30.178 24.664 46.943 34.029-9.721 32.432-15.507 69.49-16.334 109.24h-90.138c2.371-55.117 24.517-105.18 59.529-143.26zm-59.529 162.96h90.138c0.822 39.522 6.542 76.395 16.165 108.7-16.826 9.417-32.63 20.854-47.09 34.235-34.833-38.043-56.849-87.978-59.213-142.93zm73.312 157.04c12.19-11.203 25.364-20.936 39.385-29.097 12.124 32.962 28.558 60.099 47.973 78.968-32.89-9.963-62.64-27.205-87.358-49.871zm143.05 58.671c-34.916-5.996-65.985-43.431-85.461-97.257 26.59-12.365 55.469-19.43 85.461-20.71v117.97zm0-137.9c-32.107 1.255-63.098 8.649-91.668 21.594-8.712-29.881-14.035-63.715-14.867-99.402h106.54v77.808zm0-97.5h-106.54c0.837-35.911 6.226-69.944 15.035-99.962 28.524 12.898 59.456 20.267 91.5 21.52v78.442zm0-98.375c-29.917-1.278-58.727-8.308-85.261-20.615 19.488-53.535 50.463-90.742 85.261-96.718v117.33zm236.06 98.375h-90.138c-0.827-39.747-6.614-76.807-16.335-109.24 16.766-9.364 32.519-20.733 46.939-34.03 35.015 38.085 57.162 88.151 59.534 143.27zm-73.647-157.36c-12.151 11.118-25.274 20.781-39.236 28.888-12.106-32.728-28.475-59.671-47.787-78.441 32.738 9.919 62.373 27.042 87.023 49.553zm-142.72-58.351c34.797 5.975 65.772 43.181 85.26 96.714-26.538 12.308-55.35 19.343-85.26 20.62v-117.33zm0 137.27c32.036-1.253 62.972-8.622 91.5-21.522 8.809 30.019 14.198 64.052 15.035 99.963h-106.54v-78.441zm0 98.134h106.54c-0.832 35.688-6.156 69.522-14.867 99.403-28.574-12.947-59.569-20.341-91.668-21.596v-77.807zm0 215.71v-117.97c29.985 1.281 58.866 8.349 85.46 20.715-19.476 53.825-50.545 91.258-85.46 97.254zm55.696-8.799c19.414-18.868 35.847-46.004 47.972-78.965 14.023 8.16 27.201 17.887 39.392 29.087-24.719 22.669-54.471 39.913-87.364 49.878zm101.45-63.972c-14.459-13.38-30.261-24.82-47.087-34.236 9.623-32.303 15.344-69.177 16.166-108.7h90.138c-2.365 54.956-24.382 104.89-59.217 142.94z" /></svg>